<svg xmlns="http://www.w3.org/2000/svg" xmlns:xlink="http://www.w3.org/1999/xlink" width="16" height="17" viewBox="0 0 16 17"><defs><style>.a,.c{fill:#058;}.a{stroke:#707070;}.b{clip-path:url(#a);}</style><clipPath id="a"><rect class="a" width="16" height="17" transform="translate(0.11 -0.334)"/></clipPath></defs><g class="b" transform="translate(-0.11 0.334)"><g transform="translate(1.534 0)"><path class="c" d="M10.278,6.884a.382.382,0,0,0-.382.382v7.229a.382.382,0,0,0,.765,0V7.266A.382.382,0,0,0,10.278,6.884Zm0,0" transform="translate(-1.39 -0.967)"/><path class="c" d="M5.028,6.884a.382.382,0,0,0-.382.382v7.229a.382.382,0,0,0,.765,0V7.266A.382.382,0,0,0,5.028,6.884Zm0,0" transform="translate(-0.652 -0.967)"/><path class="c" d="M1.086,4.862v9.423a2.11,2.11,0,0,0,.561,1.455,1.883,1.883,0,0,0,1.367.591H10.25a1.883,1.883,0,0,0,1.367-.591,2.11,2.11,0,0,0,.561-1.455V4.862A1.461,1.461,0,0,0,11.8,1.989H9.845V1.511A1.5,1.5,0,0,0,8.33,0h-3.4A1.5,1.5,0,0,0,3.419,1.511v.478H1.461a1.461,1.461,0,0,0-.375,2.873Zm9.164,10.7H3.014a1.211,1.211,0,0,1-1.163-1.281V4.9h9.562v9.39a1.211,1.211,0,0,1-1.163,1.281ZM4.184,1.511a.737.737,0,0,1,.75-.746h3.4a.737.737,0,0,1,.75.746v.478h-4.9ZM1.461,2.754H11.8a.688.688,0,1,1,0,1.377H1.461a.688.688,0,1,1,0-1.377Zm0,0" transform="translate(0 0)"/><path class="c" d="M7.653,6.884a.382.382,0,0,0-.382.382v7.229a.382.382,0,0,0,.765,0V7.266A.382.382,0,0,0,7.653,6.884Zm0,0" transform="translate(-1.021 -0.967)"/></g></g></svg>